<svg width="24" height="24" viewBox="0 0 24 24" fill="none" xmlns="http://www.w3.org/2000/svg">
<path d="M12.2165 24H12.1645C5.66715 24 0.380981 18.6286 0.380981 12.0264V11.9736C0.380981 5.37142 5.66715 0 12.1645 0H12.2165C18.7139 0 24 5.37142 24 11.9736V12.0264C24 18.6286 18.7139 24 12.2165 24ZM12.1645 0.812375C6.10767 0.812375 1.18046 5.81904 1.18046 11.9736V12.0264C1.18046 18.181 6.10767 23.1876 12.1645 23.1876H12.2165C18.2733 23.1876 23.2006 18.181 23.2006 12.0264V11.9736C23.2006 5.81904 18.2733 0.812375 12.2165 0.812375H12.1645Z" fill="#F3F3F3"/>
<path d="M6.22274 8.11312C5.92214 7.8296 5.77264 7.47866 5.77264 7.0611C5.77264 6.64354 5.92294 6.27715 6.22274 5.99282C6.52335 5.7093 6.9103 5.56714 7.38439 5.56714C7.85848 5.56714 8.23024 5.7093 8.53005 5.99282C8.83065 6.27634 8.98015 6.63298 8.98015 7.0611C8.98015 7.48922 8.82985 7.8296 8.53005 8.11312C8.22944 8.39664 7.84809 8.5388 7.38439 8.5388C6.92069 8.5388 6.52335 8.39664 6.22274 8.11312ZM8.72752 9.73949V18.4319H6.02447V9.73949H8.72752Z" fill="#F3F3F3"/>
<path d="M17.7257 10.5981C18.3149 11.248 18.6091 12.14 18.6091 13.2757V18.2783H16.042V13.6283C16.042 13.0556 15.8957 12.6104 15.6039 12.2936C15.312 11.9767 14.9187 11.8175 14.4262 11.8175C13.9337 11.8175 13.5404 11.9759 13.2486 12.2936C12.9568 12.6104 12.8105 13.0556 12.8105 13.6283V18.2783H10.2281V9.71509H12.8105V10.8508C13.0719 10.4722 13.4245 10.1733 13.8674 9.95311C14.3103 9.73296 14.8084 9.62329 15.3624 9.62329C16.349 9.62329 17.1372 9.94824 17.7257 10.5981Z" fill="#F3F3F3"/>
</svg>
