<svg width="25" height="24" viewBox="0 0 25 24" fill="none" xmlns="http://www.w3.org/2000/svg">
<path d="M12.7562 24H12.7042C6.20682 24 0.920654 18.6286 0.920654 12.0264V11.9736C0.920654 5.37142 6.20682 0 12.7042 0H12.7562C19.2535 0 24.5397 5.37142 24.5397 11.9736V12.0264C24.5397 18.6286 19.2535 24 12.7562 24ZM12.7042 0.812375C6.64733 0.812375 1.72013 5.81903 1.72013 11.9736V12.0264C1.72013 18.181 6.64733 23.1876 12.7042 23.1876H12.7562C18.813 23.1876 23.7402 18.181 23.7402 12.0264V11.9736C23.7402 5.81903 18.813 0.812375 12.7562 0.812375H12.7042Z" fill="white"/>
<path d="M16.2609 5.12366H9.19987C7.24914 5.12366 5.66217 6.73622 5.66217 8.71842V15.2824C5.66217 17.2646 7.24914 18.8772 9.19987 18.8772H16.2609C18.2116 18.8772 19.7986 17.2646 19.7986 15.2824V8.71842C19.7986 6.73622 18.2116 5.12366 16.2609 5.12366ZM6.91016 8.71842C6.91016 7.43568 7.93749 6.39176 9.19987 6.39176H16.2609C17.5233 6.39176 18.5506 7.43568 18.5506 8.71842V15.2824C18.5506 16.5651 17.5233 17.609 16.2609 17.609H9.19987C7.93749 17.609 6.91016 16.5651 6.91016 15.2824V8.71842Z" fill="white"/>
<path d="M12.7305 15.3433C14.5445 15.3433 16.0211 13.8437 16.0211 11.9996C16.0211 10.1555 14.5453 8.65588 12.7305 8.65588C10.9157 8.65588 9.43982 10.1555 9.43982 11.9996C9.43982 13.8437 10.9157 15.3433 12.7305 15.3433ZM12.7305 9.9248C13.857 9.9248 14.7732 10.8558 14.7732 12.0004C14.7732 13.1451 13.857 14.076 12.7305 14.076C11.604 14.076 10.6878 13.1451 10.6878 12.0004C10.6878 10.8558 11.604 9.9248 12.7305 9.9248Z" fill="white"/>
<path d="M16.3258 9.19601C16.8143 9.19601 17.2125 8.79227 17.2125 8.2951C17.2125 7.79792 16.8151 7.39417 16.3258 7.39417C15.8365 7.39417 15.4392 7.79792 15.4392 8.2951C15.4392 8.79227 15.8365 9.19601 16.3258 9.19601Z" fill="white"/>
</svg>
