<svg width="252" height="50" viewBox="0 0 252 50" fill="none" xmlns="http://www.w3.org/2000/svg">
<path d="M37.9008 20.3961L38.5232 20.1316L38.7218 19.285L38.929 18.442L40.6639 17.6976C41.8404 17.1975 42.4156 16.9749 42.4337 17.0176C42.4577 17.0728 43.0408 22.5735 43.0497 22.8315C43.0511 22.9033 43.2067 22.8591 43.792 22.6105L44.5315 22.2959L45.0704 18.9603L45.6121 15.6304L47.5892 14.754C49.7262 13.8096 49.7604 13.7871 49.9218 13.3124C50.0338 12.9964 50.0266 12.7746 49.8927 12.4607C49.7269 12.0737 49.3575 11.7881 48.9431 11.7395C48.6275 11.6996 48.6275 11.6996 46.6555 12.5375L44.6901 13.3732L41.8528 11.422L39.022 9.4679L38.2948 9.77666C37.6295 10.0593 37.5728 10.0978 37.6433 10.1768C37.6885 10.2304 38.5508 11.243 39.5615 12.4317C40.5722 13.6204 41.4114 14.6286 41.4274 14.6656C41.4535 14.7272 41.0732 14.9106 39.7427 15.476L38.0236 16.2066L37.2172 15.7506L36.4167 15.2926L35.8132 15.5493C35.2649 15.7826 35.2148 15.8181 35.2845 15.8971C35.3296 15.9508 35.7222 16.4444 36.1665 16.9888L36.9671 17.9911L37.1198 19.2328C37.2012 19.917 37.2696 20.5194 37.2754 20.5671C37.2769 20.6396 37.4201 20.6005 37.9008 20.3961Z" fill="white"/>
<path d="M36.0183 19.1282L34.7168 19.8313C29.9395 22.4552 26.4055 24.9268 24.8277 26.7823C24.6532 26.9926 24.5005 27.1883 24.3696 27.3767C24.1151 27.0216 23.7879 26.7533 23.3298 26.8621C22.9808 26.9418 22.7335 27.1592 22.5299 27.4347C23.8024 25.4487 27.1399 22.7958 32.0773 19.8675C32.9935 19.3238 35.2912 18.0192 35.4802 17.9395C35.5239 17.9395 35.6475 18.1642 35.7784 18.5193L36.0183 19.1282Z" fill="white"/>
<path d="M23.3296 0.0145303C22.1299 0.173993 21.0318 0.376944 19.9338 0.913316C19.1049 1.31921 18.2906 1.87009 17.6652 2.55868C17.1562 3.11679 16.6836 3.71115 16.3419 4.39249C15.7964 5.47973 15.5856 6.61046 15.5856 7.81367C15.5856 8.19783 15.5565 8.58198 15.6292 8.9589C15.8256 10.0389 16.2691 11.0681 16.7054 12.0612C17.3526 13.5398 18.116 14.9605 18.8868 16.3738C19.8611 18.157 20.9155 19.8966 21.9698 21.6361C22.3043 22.187 22.697 23.238 23.5041 23.1582C24.2604 23.0786 24.493 22.39 24.8711 21.8391C25.7874 20.4981 26.638 19.0847 27.4743 17.6858C28.485 15.9897 29.4884 14.2863 30.3319 12.5033C30.8264 11.4595 31.3573 10.3506 31.5462 9.1981C31.5972 8.87917 31.5754 8.553 31.5899 8.22682C31.6481 6.92213 31.3645 5.61019 30.7464 4.45047C30.3756 3.76189 29.9102 3.14578 29.3649 2.58042C28.6958 1.89183 27.8887 1.32646 27.0234 0.906068C26.1654 0.492917 25.2711 0.202985 24.3258 0.0652681C23.9986 0.036275 23.6569 -0.0289594 23.3296 0.0145303Z" fill="white"/>
<path d="M7.8504 8.08925C7.22507 8.16897 6.61427 8.17622 6.00347 8.35019C4.17835 8.86481 2.58592 9.9448 1.4225 11.438C0.738981 12.3222 0.353597 13.4167 0.164541 14.504C-0.329914 17.3163 0.448125 20.3388 2.69498 22.2378C3.37122 22.8105 4.2147 23.3613 5.05818 23.6513C6.43248 24.1225 7.93039 24.2022 9.36285 24.3036C11.5224 24.4486 13.7039 24.4631 15.8707 24.3906C16.976 24.3543 18.0812 24.3688 19.1865 24.3036C19.5574 24.2818 19.95 24.3471 20.3208 24.2746C20.9535 24.1442 21.3389 23.5136 21.1207 22.8975C20.9753 22.4843 20.6844 22.093 20.4808 21.7015C19.9791 20.7592 19.47 19.817 18.9539 18.882C17.7322 16.6712 16.467 14.4315 14.9691 12.3947C14.1401 11.2712 13.3185 10.0608 12.0896 9.33595C11.0353 8.7126 9.96638 8.25596 8.73752 8.13999C8.43939 8.10374 8.13399 8.04576 7.8504 8.08925Z" fill="white"/>
<path d="M12.5689 25.5936C12.2198 25.6371 11.849 25.6009 11.5 25.6081C10.9837 25.6154 10.4674 25.6444 9.95115 25.6661C9.03495 25.7096 8.11876 25.7894 7.20983 25.9199C6.47542 26.0212 5.72646 26.1155 5.02841 26.3765C4.22129 26.6736 3.4578 27.1737 2.78883 27.7029C2.27983 28.1016 1.83627 28.5945 1.45816 29.1236C0.163852 30.9574 -0.26516 33.3131 0.15658 35.502C0.316551 36.3356 0.556506 37.2054 0.978248 37.952C1.29092 38.4956 1.74174 38.9885 2.1853 39.4306C3.90861 41.163 6.4027 42.1778 8.86043 41.8805C10.1911 41.721 11.5799 41.1558 12.627 40.3221C13.7977 39.3944 14.6776 38.0534 15.4992 36.8213C16.779 34.9005 17.9642 32.9144 19.0695 30.8921C19.6293 29.8629 20.1819 28.8264 20.7492 27.7971C21.0327 27.2752 21.3672 26.7679 20.9964 26.1952C20.5746 25.5356 19.4985 25.7024 18.815 25.7024C17.8697 25.7024 16.9244 25.6154 15.9791 25.6081C15.5647 25.6009 15.143 25.6226 14.7284 25.6009C14.2485 25.5791 13.7614 25.5791 13.2815 25.5864C13.0488 25.5936 12.8089 25.5646 12.5689 25.5936Z" fill="white"/>
<path d="M46.5471 36.8794C45.0565 40.9747 39.712 43.1854 35.8073 41.1414C34.8402 40.634 34.0185 40.0542 33.3205 39.1989C33.1532 38.9959 32.7678 38.6698 32.7315 38.4015C32.5788 38.329 32.4842 38.1407 32.3898 38.0102C32.1498 37.684 31.9099 37.3578 31.6916 37.0171C30.9137 35.8284 30.1647 34.6324 29.4375 33.422C29.1322 32.9146 28.834 32.4 28.5432 31.8926C28.3541 31.5736 28.1723 31.2548 27.9978 30.9431C27.5179 30.0878 27.0525 29.2253 26.6163 28.3554C26.3181 27.7611 25.6855 27.0508 25.9836 26.3549C26.3253 25.5431 27.198 25.7823 27.8887 25.7171C28.805 25.6301 29.7357 25.6664 30.6519 25.6446C31.6916 25.6156 32.7388 25.5721 33.7859 25.5939C35.6473 25.6374 37.5088 25.6374 39.363 25.8548C40.2646 25.9635 41.1808 26.0723 42.0389 26.3694C42.526 26.5434 42.9768 26.8115 43.4132 27.087C44.1258 27.5291 44.7729 28.0583 45.3037 28.7179C45.8636 29.3991 46.2853 30.1748 46.5763 31.001L46.7725 31.6389L46.7944 31.7041L46.8016 31.7331C47.2306 33.422 47.1434 35.2485 46.5471 36.8794Z" fill="white"/>
<path d="M31.5834 41.7646C31.6125 42.9243 31.4234 44.0115 30.9727 45.0915C30.7035 45.7294 30.3036 46.3093 29.8746 46.8529C29.3293 47.5343 28.6531 48.1213 27.9113 48.5925C26.9878 49.1795 25.9844 49.5928 24.9155 49.8391C21.767 50.564 18.1895 48.7591 16.5753 46.041C15.7463 44.6421 15.441 42.9605 15.5936 41.3514C15.7026 40.1773 16.2407 39.0175 16.7062 37.952C17.5715 35.995 18.5822 34.0959 19.6656 32.2621C20.4436 30.9429 21.2145 29.6238 21.9997 28.3118C22.1597 28.0436 22.3051 27.7536 22.4942 27.4928C22.5015 27.471 22.516 27.4565 22.5305 27.4348C22.7341 27.1594 22.9813 26.9419 23.3303 26.8621C23.7885 26.7534 24.1157 27.0216 24.3702 27.3768C24.5738 27.645 24.7337 27.9639 24.8865 28.1959C25.4463 29.0294 25.9771 29.8846 26.5007 30.7473C26.7188 31.0951 26.9298 31.443 27.1406 31.7983C27.4242 32.2621 27.7005 32.726 27.984 33.1826C28.893 34.6685 29.7365 36.2269 30.4709 37.807C30.9145 38.7638 31.3726 39.7713 31.5398 40.815C31.5907 41.134 31.5762 41.4456 31.5834 41.7646Z" fill="white"/>
<path d="M69.906 33H65.434V19.558H60.572V15.658H74.742V19.558H69.906V33ZM79.2471 33H75.2431V20.442H79.2471V22.028C80.0791 21.014 81.6651 20.13 83.1731 20.13V24.004C82.9391 23.926 82.6011 23.874 82.1851 23.874C81.1451 23.874 79.7671 24.316 79.2471 25.044V33ZM96.4071 33H92.4031V31.752C91.6231 32.688 90.1151 33.312 88.5031 33.312C86.5791 33.312 84.1871 32.012 84.1871 29.178C84.1871 26.136 86.5791 25.226 88.5031 25.226C90.1671 25.226 91.6491 25.746 92.4031 26.682V25.096C92.4031 24.004 91.4671 23.276 89.8551 23.276C88.6071 23.276 87.3071 23.744 86.2931 24.602L84.8631 22.08C86.4751 20.702 88.6331 20.13 90.5571 20.13C93.5731 20.13 96.4071 21.248 96.4071 25.148V33ZM92.4031 29.776V28.658C91.9871 28.086 91.0511 27.774 90.1671 27.774C89.1011 27.774 88.1651 28.242 88.1651 29.23C88.1651 30.218 89.1011 30.686 90.1671 30.686C91.0511 30.686 91.9871 30.374 92.4031 29.776ZM106.801 33H102.537L97.5974 20.442H101.809L104.643 28.398L107.503 20.442H111.741L106.801 33ZM112.116 26.708C112.116 23.068 114.872 20.13 118.798 20.13C122.516 20.13 125.22 22.86 125.22 27.124V27.982H116.276C116.51 29.152 117.602 30.218 119.474 30.218C120.592 30.218 121.84 29.776 122.542 29.152L124.232 31.648C122.984 32.766 120.904 33.312 118.98 33.312C115.106 33.312 112.116 30.79 112.116 26.708ZM118.798 23.224C117.056 23.224 116.38 24.472 116.224 25.382H121.398C121.294 24.498 120.644 23.224 118.798 23.224ZM131.196 33H127.192V15.658H131.196V33ZM150.995 33H140.855V15.658H150.683C154.115 15.658 155.753 17.894 155.753 20.078C155.753 22.236 154.427 23.692 152.789 24.056C154.635 24.342 156.091 26.11 156.091 28.294C156.091 30.816 154.401 33 150.995 33ZM145.327 19.376V22.366H149.669C150.579 22.366 151.203 21.716 151.203 20.858C151.203 20 150.579 19.376 149.669 19.376H145.327ZM145.327 26.058V29.282H149.825C150.891 29.282 151.541 28.632 151.541 27.696C151.541 26.812 150.917 26.058 149.825 26.058H145.327ZM164.429 33.312C160.165 33.312 157.591 30.244 157.591 26.708C157.591 23.172 160.165 20.13 164.429 20.13C168.745 20.13 171.293 23.172 171.293 26.708C171.293 30.244 168.745 33.312 164.429 33.312ZM164.429 29.776C166.197 29.776 167.185 28.398 167.185 26.708C167.185 25.044 166.197 23.666 164.429 23.666C162.687 23.666 161.725 25.044 161.725 26.708C161.725 28.398 162.687 29.776 164.429 29.776ZM179.409 33.312C175.145 33.312 172.571 30.244 172.571 26.708C172.571 23.172 175.145 20.13 179.409 20.13C183.725 20.13 186.273 23.172 186.273 26.708C186.273 30.244 183.725 33.312 179.409 33.312ZM179.409 29.776C181.177 29.776 182.165 28.398 182.165 26.708C182.165 25.044 181.177 23.666 179.409 23.666C177.667 23.666 176.705 25.044 176.705 26.708C176.705 28.398 177.667 29.776 179.409 29.776ZM201.28 33H196.34L193.584 28.554L192.388 29.984V33H188.384V15.658H192.388V25.46L196.21 20.442H201.046L196.418 26.162L201.28 33ZM204.579 18.856C203.305 18.856 202.291 17.842 202.291 16.568C202.291 15.294 203.305 14.28 204.579 14.28C205.853 14.28 206.867 15.294 206.867 16.568C206.867 17.842 205.853 18.856 204.579 18.856ZM206.581 33H202.577V20.442H206.581V33ZM221.989 33H217.985V25.746C217.985 24.212 217.179 23.666 215.931 23.666C214.735 23.666 213.955 24.316 213.487 24.888V33H209.483V20.442H213.487V21.976C214.241 21.092 215.723 20.13 217.829 20.13C220.689 20.13 221.989 21.794 221.989 24.108V33ZM224.557 36.224L226.299 33.364C227.261 34.404 228.665 34.82 230.121 34.82C231.447 34.82 233.319 34.274 233.319 31.934V30.972C232.279 32.194 231.031 32.792 229.601 32.792C226.533 32.792 224.063 30.686 224.063 26.448C224.063 22.314 226.455 20.13 229.601 20.13C231.005 20.13 232.305 20.676 233.319 21.924V20.442H237.297V31.882C237.297 37.004 233.241 38.096 230.121 38.096C227.963 38.096 226.169 37.55 224.557 36.224ZM233.319 28.138V24.784C232.825 24.108 231.759 23.666 230.927 23.666C229.341 23.666 228.171 24.628 228.171 26.448C228.171 28.294 229.341 29.256 230.927 29.256C231.759 29.256 232.825 28.814 233.319 28.138ZM239.165 31.388L240.829 28.632C241.765 29.464 243.767 30.296 245.249 30.296C246.445 30.296 246.939 29.906 246.939 29.36C246.939 28.71 246.081 28.476 244.781 28.268C242.649 27.904 239.633 27.462 239.633 24.264C239.633 22.054 241.531 20.13 245.015 20.13C247.121 20.13 248.915 20.806 250.267 21.794L248.733 24.446C247.979 23.718 246.549 23.068 245.041 23.068C244.105 23.068 243.455 23.38 243.455 23.926C243.455 24.498 244.131 24.706 245.457 24.94C247.589 25.304 250.761 25.824 250.761 29.152C250.761 31.544 248.655 33.312 245.041 33.312C242.805 33.312 240.491 32.558 239.165 31.388Z" fill="white"/>
</svg>
